<svg xmlns="http://www.w3.org/2000/svg" xmlns:xlink="http://www.w3.org/1999/xlink" width="10" height="10" viewBox="0 0 10 10"><defs><clipPath id="b"><rect width="10" height="10"/></clipPath></defs><g id="a" clip-path="url(#b)"><g transform="translate(-264.727 -276.409)"><path d="M-375,435.053a.942.942,0,0,1,.318.765c0,1.176,0,2.351,0,3.527a.369.369,0,0,1-.014.168c-.031.055-.1.129-.143.127a.254.254,0,0,1-.171-.12.45.45,0,0,1-.02-.209q0-1.721,0-3.441a1.175,1.175,0,0,0-.029-.317.509.509,0,0,0-.469-.348.526.526,0,0,0-.493.316c-.026.065-.017.148-.054.2a.965.965,0,0,1-.185.164c-.052-.065-.159-.146-.146-.194.065-.232.162-.454.252-.691-.219-.028-.491-.074-.764-.1a.759.759,0,0,1-.708-.527c-.126-.329-.266-.653-.413-1.009a4.894,4.894,0,0,0-1,1.355,2.683,2.683,0,0,0-.083.886c-.063,1.052-.118,2.1-.185,3.157a.841.841,0,0,1-1.128.829.777.777,0,0,1-.54-.705q-.117-1.78-.217-3.561a6.984,6.984,0,0,1-.011-1.063,2.731,2.731,0,0,1,.621-1.249,5.324,5.324,0,0,1,1.709-1.743,1.121,1.121,0,0,1,1.752.6c.215.527.423,1.056.649,1.578a.424.424,0,0,0,.233.205c.339.112.684.206,1.03.3a.6.6,0,0,1,.515.451A.57.57,0,0,1-375,435.053Zm-5.9-.3c.009.107.031.305.044.5q.111,1.781.218,3.561a.489.489,0,0,0,.473.486.491.491,0,0,0,.492-.444,1.575,1.575,0,0,0,.019-.17c.076-1.294.15-2.588.231-3.882a.813.813,0,0,1,.1-.34,6.13,6.13,0,0,1,1.144-1.434c.21-.2.305-.175.417.1.156.382.314.763.465,1.147a.4.4,0,0,0,.346.277c.526.061,1.053.12,1.578.184.146.018.286.022.325-.152s-.08-.249-.236-.291c-.393-.106-.782-.23-1.176-.328a.412.412,0,0,1-.311-.283c-.238-.6-.479-1.2-.732-1.8a.729.729,0,0,0-1.063-.384,4.026,4.026,0,0,0-.706.48,7.684,7.684,0,0,0-1.379,1.764A1.724,1.724,0,0,0-380.9,434.755Z" transform="translate(647.95 -153.247)" fill="#878787"/><path d="M-263.962,395.345a1.284,1.284,0,0,1-1.3-1.274,1.3,1.3,0,0,1,1.3-1.3,1.281,1.281,0,0,1,1.284,1.289A1.275,1.275,0,0,1-263.962,395.345Zm-.024-.364a.907.907,0,0,0,.938-.906.921.921,0,0,0-.906-.946.941.941,0,0,0-.946.913A.926.926,0,0,0-263.985,394.981Z" transform="translate(535.95 -116.358)" fill="#1cacec"/></g></g></svg>