<svg xmlns="http://www.w3.org/2000/svg" xmlns:xlink="http://www.w3.org/1999/xlink" width="30" height="30" viewBox="0 0 30 30"><defs><clipPath id="b"><rect width="30" height="30"/></clipPath></defs><g id="a" clip-path="url(#b)"><g transform="translate(-396.407 -278)"><g transform="translate(400.093 279)"><path d="M158.4,7.842c-.239.011-.468.025-.7.03-.176,0-.192.131-.2.259q-.057.658-.11,1.317c-.119,1.5-.232,2.995-.357,4.491-.091,1.093-.177,2.187-.3,3.276a1.217,1.217,0,0,1-1.2,1.028q-.933.01-1.867,0a1.234,1.234,0,0,1-1.212-1.045c-.085-.559-.128-1.125-.174-1.689-.121-1.479-.234-2.958-.351-4.437-.076-.959-.161-1.918-.231-2.878-.018-.251-.115-.353-.365-.327-.187.019-.439-.062-.546.035s-.036.355-.053.542c-.162,1.773-.329,3.546-.489,5.319q-.135,1.5-.252,3.011a1.4,1.4,0,0,1-.953,1.408,1.132,1.132,0,0,1-.335.06c-.622.006-1.244.008-1.867,0a1.241,1.241,0,0,1-1.209-1.017c-.086-.522-.132-1.052-.179-1.58-.158-1.764-.307-3.529-.461-5.294-.039-.448-.084-.9-.119-1.344-.015-.2-.1-.262-.3-.282a2.517,2.517,0,0,1-.841-.193,1.14,1.14,0,0,1-.633-1.081c-.01-2.16-.017-4.319,0-6.479a2.132,2.132,0,0,1,1.694-2.052c.64-.148,1.276-.312,1.909-.486a.5.5,0,0,1,.537.123,4.461,4.461,0,0,1,.319.325c.154.189.3.18.427-.011a.956.956,0,0,1,1.3-.323,5.756,5.756,0,0,0,.928.235.316.316,0,0,0,.257-.075A2.74,2.74,0,0,1,152-2.04c.5-.121,1-.234,1.5-.379a.551.551,0,0,1,.6.145c.5.485.5.484.99,0a.552.552,0,0,1,.6-.15c.717.2,1.45.354,2.158.583a4.943,4.943,0,0,1,.829.512.593.593,0,0,0,.373.093c.46-.1.913-.225,1.367-.349a.5.5,0,0,1,.5.165c.167.154.342.4.52.41.159.005.315-.283.5-.407a.688.688,0,0,1,.444-.166c.769.176,1.539.358,2.291.6A2.072,2.072,0,0,1,166.1,1.051c.01,1.215,0,2.43,0,3.645,0,.873,0,1.746,0,2.619a1.313,1.313,0,0,1-1.4,1.421c-.357,0-.365.013-.4.375q-.262,2.928-.528,5.857c-.068.752-.118,1.507-.223,2.253a1.226,1.226,0,0,1-1.227,1.025c-.587.005-1.174-.016-1.76.006a1.323,1.323,0,0,1-1.312-1.07c-.049-.474-.11-.946-.152-1.42q-.234-2.66-.458-5.322c-.07-.824-.137-1.648-.207-2.472A.578.578,0,0,0,158.4,7.842ZM150.738,3.3h0c0,1.089,0,2.178,0,3.267,0,.341.187.458.6.474.38.015.251-.252.273-.441a.922.922,0,0,0,0-.108q0-2.5,0-4.995c0-.3.17-.5.406-.5s.405.2.417.5c0,.081,0,.162,0,.243,0,1.575-.021,3.15.008,4.724.018,1.024.1,2.047.167,3.07.077,1.121.176,2.241.267,3.362.109,1.345.216,2.689.33,4.034a.474.474,0,0,0,.533.477q.853.005,1.707,0a.471.471,0,0,0,.521-.488c.045-.493.08-.986.12-1.479.128-1.56.264-3.119.382-4.679.1-1.318.221-2.636.254-3.956.044-1.763.01-3.527.012-5.291,0-.3.163-.5.4-.513s.421.2.424.516,0,.648,0,.972c0,1.422,0,2.844,0,4.266,0,.093.035.241.1.27a.533.533,0,0,0,.776-.489q0-3.2,0-6.4a1.268,1.268,0,0,0-.917-1.22c-.521-.147-1.05-.267-1.57-.417a.552.552,0,0,0-.676.2,2.617,2.617,0,0,1-.279.289c-.325.324-.488.326-.807.007a3.369,3.369,0,0,0-.4-.4.582.582,0,0,0-.393-.12c-.522.1-1.034.253-1.554.367A1.411,1.411,0,0,0,150.73.356C150.763,1.335,150.738,2.317,150.738,3.3Zm-6.823.856h0c0,1.089,0,2.178,0,3.266,0,.351.193.472.622.481.369.008.248-.257.249-.431.007-1.7,0-3.4,0-5.1,0-.3.165-.5.4-.514s.419.2.426.514c0,.063,0,.126,0,.189,0,1.854,0,3.707,0,5.561,0,.3.031.61.058.915q.183,2.082.372,4.165c.111,1.245.218,2.49.334,3.735a.462.462,0,0,0,.514.465c.587,0,1.173.006,1.76,0a.462.462,0,0,0,.492-.459c.042-.411.075-.824.112-1.236.13-1.46.265-2.919.388-4.38.095-1.129.232-2.258.248-3.388.037-2.5.009-5,.011-7.5a5.117,5.117,0,0,1,.034-.645c.019-.149-.024-.215-.165-.247-.285-.066-.565-.158-.853-.207a.458.458,0,0,0-.327.1c-.186.152-.341.341-.517.505a.392.392,0,0,1-.631,0c-.17-.157-.317-.344-.5-.486a.519.519,0,0,0-.37-.113c-.53.109-1.058.233-1.578.383a1.313,1.313,0,0,0-1.093,1.492C143.913,2.193,143.915,3.174,143.915,4.154Zm15.362.388a56.857,56.857,0,0,0,.2,6.085c.239,2.09.377,4.191.562,6.287a.468.468,0,0,0,.522.485q.867.006,1.733,0a.465.465,0,0,0,.512-.468c.047-.447.079-.9.119-1.343.128-1.424.262-2.847.382-4.272.1-1.138.228-2.275.254-3.415.043-1.844.011-3.689.013-5.534,0-.3.165-.5.4-.512s.42.2.423.516c0,.342,0,.684,0,1.026,0,1.4,0,2.808,0,4.211,0,.093.036.241.1.269a.533.533,0,0,0,.775-.491q0-3.213,0-6.425a1.249,1.249,0,0,0-.916-1.19c-.375-.108-.766-.172-1.129-.31a1.085,1.085,0,0,0-1.426.4c-.248.336-.5.334-.75,0a1.036,1.036,0,0,0-1.4-.4.315.315,0,0,1-.077.02c-.263.045-.421.149-.321.466a1.464,1.464,0,0,1,.02.429C159.277,1.693,159.276,3.007,159.276,4.543Z" transform="translate(-143.084 9.055)" fill="#878787"/><path d="M161.445-58.552a2.866,2.866,0,0,1,2.877,2.862,2.9,2.9,0,0,1-3,2.877,2.9,2.9,0,0,1-2.784-2.884A2.867,2.867,0,0,1,161.445-58.552Zm-2.052,2.84a2.027,2.027,0,0,0,2.021,2.083,2.02,2.02,0,0,0,2.046-2.058,2.023,2.023,0,0,0-2.022-2.057A2.028,2.028,0,0,0,159.393-55.712Z" transform="translate(-156.947 59.381)" fill="#1cacec"/><path d="M225.861-66.587a2.9,2.9,0,0,1,2.873,2.88,2.89,2.89,0,0,1-2.87,2.857,2.886,2.886,0,0,1-2.859-2.866A2.9,2.9,0,0,1,225.861-66.587Zm.018.8a2.053,2.053,0,0,0-2.077,2.056,2.055,2.055,0,0,0,2.056,2.079,2.059,2.059,0,0,0,2.079-2.058A2.054,2.054,0,0,0,225.88-65.783Z" transform="translate(-214.358 66.587)" fill="#1cacec"/><path d="M286.906-55.65a2.884,2.884,0,0,1,2.858-2.869,2.883,2.883,0,0,1,2.869,2.858,2.884,2.884,0,0,1-2.858,2.87A2.885,2.885,0,0,1,286.906-55.65Zm4.93,0a2.054,2.054,0,0,0-2.059-2.076,2.052,2.052,0,0,0-2.076,2.059,2.055,2.055,0,0,0,2.085,2.076A2.055,2.055,0,0,0,291.836-55.647Z" transform="translate(-271.26 59.35)" fill="#1cacec"/></g></g></g></svg>