<svg xmlns="http://www.w3.org/2000/svg" xmlns:xlink="http://www.w3.org/1999/xlink" width="25" height="25" viewBox="0 0 25 25"><defs><clipPath id="b"><rect width="25" height="25"/></clipPath></defs><g id="a" clip-path="url(#b)"><path d="M255.518,398.588c-.527.526-1.026,1.026-1.527,1.525-.327.325-.485.324-.813,0q-.254-.252-.509-.5a.259.259,0,0,0-.06-.029c-.062.059-.13.121-.195.185q-1.62,1.617-3.24,3.235a1.291,1.291,0,0,1-.232.2.361.361,0,0,1-.468-.061.37.37,0,0,1-.08-.487,1.218,1.218,0,0,1,.2-.232q1.617-1.621,3.235-3.24c.065-.065.127-.133.211-.221-.193-.187-.377-.363-.557-.543-.328-.328-.329-.491-.006-.813q.67-.669,1.343-1.334a2.123,2.123,0,0,1,.24-.173c-.243-.228-.44-.4-.626-.591-.313-.313-.311-.51,0-.82q2.956-2.94,5.912-5.881c1.362-1.361,2.713-2.733,4.111-4.143-.186-.176-.4-.368-.6-.569a.435.435,0,0,1,0-.723q.522-.527,1.049-1.049c.264-.262.451-.261.72.007q1.16,1.155,2.314,2.316a1.7,1.7,0,0,1,.153.2l1.416-1.411a4.823,4.823,0,0,1-.4-.32c-.392-.38-.776-.767-1.161-1.154-.271-.273-.27-.467,0-.741s.563-.57.849-.851a.408.408,0,0,1,.649-.008q1.9,1.894,3.8,3.8a.412.412,0,0,1-.007.668q-.419.431-.852.849a.435.435,0,0,1-.709,0c-.517-.52-1.027-1.046-1.513-1.543l-1.4,1.4a.977.977,0,0,1,.2.135q1.144,1.135,2.281,2.277c.316.317.314.474,0,.793-.337.338-.674.677-1.014,1.012a.432.432,0,0,1-.705,0c-.193-.192-.376-.395-.581-.612-.086.08-.147.135-.205.193q-2.924,2.919-5.846,5.838-1.98,1.981-3.952,3.969c-.341.342-.534.341-.878,0C255.876,398.959,255.705,398.78,255.518,398.588Zm-1.487-4.214-.751.72,3.192,3.2,3.207-3.206-3.2-3.2-.3.244a3.257,3.257,0,0,1,.318.237c.313.3.362.538.167.739s-.442.158-.738-.151a1.724,1.724,0,0,1-.19-.283l-1.169,1.166a5.358,5.358,0,0,1,.42.374.4.4,0,0,1-.007.574.392.392,0,0,1-.572-.012C254.264,394.644,254.14,394.492,254.031,394.374Zm6.311.083,5.894-5.894-1.28-1.278-5.894,5.9Zm-1.932-1.947,5.92-5.92c-.387-.387-.794-.8-1.209-1.2-.038-.037-.122-.025-.185-.035l-.038.1c.132.12.269.234.393.361a.413.413,0,0,1,.039.631.422.422,0,0,1-.615-.044c-.132-.127-.251-.268-.355-.38l-1.119,1.115c.124.113.268.231.4.365a.411.411,0,1,1-.585.571,4.422,4.422,0,0,1-.32-.405l-1.165,1.171c.107.092.243.195.363.314a.417.417,0,0,1,.048.629c-.178.177-.387.166-.605-.048-.126-.124-.235-.266-.334-.379l-1.149,1.149a5.292,5.292,0,0,1,.408.35.4.4,0,0,1,.023.61.429.429,0,0,1-.6-.04c-.134-.129-.256-.271-.4-.423l-.223.206ZM254.88,398l-1.275-1.283-1.3,1.3,1.275,1.285Zm7.849-14.364,2.24,2.349.561-.531-2.281-2.283Zm5.687,4.7-2.26-2.263-.57.563,2.327,2.257Zm-1.631-6.805,3.268,3.269.332-.354-3.265-3.273Z" transform="translate(-247.335 -379.199)" fill="#dedede"/></g></svg>