<svg xmlns="http://www.w3.org/2000/svg" xmlns:xlink="http://www.w3.org/1999/xlink" width="10" height="10" viewBox="0 0 10 10"><defs><clipPath id="b"><rect width="10" height="10"/></clipPath></defs><g id="a" clip-path="url(#b)"><g transform="translate(-297.022 -280.996)"><path d="M216.284,526.05l-2.371,1.268c-.553.3-1.1.593-1.66.885a.554.554,0,0,1-.245.062q-2.213.005-4.426,0h-.152a4.69,4.69,0,0,0,5.306,4.458l.048.319a5,5,0,1,1,4.108-3.568l-.31-.088A4.689,4.689,0,0,0,216.284,526.05Zm-4.365,1.879v-4.485a4.659,4.659,0,0,0-4.479,4.485Zm.348-.267,2.982-2.982a4.6,4.6,0,0,0-2.982-1.228Zm3.874-1.915-.6-.805-2.422,2.422Z" transform="translate(89.928 -242.104)" fill="#878787"/><path d="M352.931,648.014h-1.782c-.164,0-.221-.055-.218-.217a2.936,2.936,0,0,1,.022-.456.819.819,0,0,1,.779-.66.521.521,0,0,0,.53-.622.148.148,0,0,0-.053-.081,1.628,1.628,0,0,1-.611-1.3,5.259,5.259,0,0,1,.022-.7,1.143,1.143,0,0,1,1.1-.966,3.071,3.071,0,0,1,.672.043,1.13,1.13,0,0,1,.868,1.1,6.167,6.167,0,0,1-.043.892,1.468,1.468,0,0,1-.544.909.19.19,0,0,0-.08.165.51.51,0,0,0,.544.56.837.837,0,0,1,.791.8c0,.111,0,.222,0,.333,0,.135-.062.2-.2.2Zm-1-3.666c0,.142,0,.256,0,.369a1.316,1.316,0,0,0,.687,1.139.577.577,0,0,0,.628,0,1.408,1.408,0,0,0,.675-1.49.908.908,0,0,1-.667-.215.994.994,0,0,1-.632.2C352.4,644.351,352.171,644.348,351.931,644.348Zm.833,3.328c0-.175,0-.341,0-.507a.121.121,0,0,0-.06-.081c-.125-.068-.251-.134-.381-.19a.234.234,0,0,0-.139,0,2.161,2.161,0,0,1-.375.107.528.528,0,0,0-.529.668Zm1.834,0c0-.052,0-.093,0-.135a.513.513,0,0,0-.519-.533,2.254,2.254,0,0,1-.368-.092.206.206,0,0,0-.114,0c-.148.058-.294.122-.439.187-.024.011-.057.038-.058.059,0,.172,0,.344,0,.518Zm-2.646-3.641c.286-.014.564-.019.839-.046.228-.022.283-.092.306-.316a.167.167,0,0,1,.329-.035,1.337,1.337,0,0,1,.042.182.2.2,0,0,0,.187.181c.081.013.164.016.247.024a.777.777,0,0,0-.632-.657,2.763,2.763,0,0,0-.571-.019A.814.814,0,0,0,351.953,644.036Zm.542,2.571c.135.068.273.138.412.205a.079.079,0,0,0,.058,0c.143-.059.284-.121.416-.178l-.131-.412a.87.87,0,0,1-.638,0Z" transform="translate(-47.91 -357.018)" fill="#1cacec"/></g></g></svg>