<svg xmlns="http://www.w3.org/2000/svg" xmlns:xlink="http://www.w3.org/1999/xlink" width="10" height="10" viewBox="0 0 10 10"><defs><clipPath id="b"><rect width="10" height="10"/></clipPath></defs><g id="a" clip-path="url(#b)"><g transform="translate(-298.477 -266.187)"><g transform="translate(298.477 266.187)"><path d="M211.051,220.955l.309-.31a.834.834,0,0,1,.009-1.242.838.838,0,1,1,1.088,1.273l.068.058a1.018,1.018,0,0,1,.4.8c0,.184,0,.368,0,.552s-.035.232-.236.258c0,.152,0,.307,0,.462,0,.069,0,.139,0,.208a.169.169,0,0,1-.187.178c-.058,0-.117,0-.177,0a4.529,4.529,0,0,1-5.921,5.25c0,.182,0,.359,0,.536,0,.155-.06.215-.213.215h-2.531c-.153,0-.211-.059-.212-.216q0-.693,0-1.385v-.12h-.3c-.165,0-.219-.054-.219-.217,0-.375,0-.75,0-1.125a1.851,1.851,0,0,1,.485-1.282.207.207,0,0,0,.043-.144,4.951,4.951,0,0,1,.018-1.163,1.307,1.307,0,0,0-.028-.305,1.481,1.481,0,0,1,.626-1.441.67.67,0,0,0,.145-.144,4.506,4.506,0,0,1,6.823-.709l.046.041Zm-4.651,6.519c0,.182,0,.348,0,.514a.1.1,0,0,0,.084.119,4.121,4.121,0,0,0,2.058.208,4.042,4.042,0,0,0,2.59-1.469,4.087,4.087,0,0,0,.854-3.572c-.013-.064-.043-.081-.105-.08-.177,0-.354,0-.531,0a.169.169,0,0,1-.189-.176c0-.045,0-.09,0-.135,0-.179,0-.359,0-.536-.176-.025-.235-.069-.235-.184,0-.26.011-.52.014-.78a.149.149,0,0,0-.04-.1,4.082,4.082,0,0,0-3.6-1.208,4.03,4.03,0,0,0-2.427,1.279c-.05.054-.1.112-.153.178a1.514,1.514,0,0,1,.965,2.8c.035.015.067.028.1.042a1.837,1.837,0,0,1,1.133,1.648c.025.419.006.84,0,1.26a.165.165,0,0,1-.185.187C206.629,227.476,206.522,227.474,206.4,227.474Zm-3.145-.335c.11,0,.2,0,.3,0,.172,0,.225.055.225.224q0,.693,0,1.385v.107h2.288v-.121q0-.687,0-1.375c0-.163.054-.218.218-.22.1,0,.2,0,.3,0,0-.365,0-.715,0-1.065a1.4,1.4,0,0,0-.282-.854,1.651,1.651,0,0,0-1.6-.671,1.565,1.565,0,0,0-1.334.975,1.632,1.632,0,0,0-.114.554C203.242,226.426,203.255,226.777,203.255,227.139Zm2.833-4.108a1.165,1.165,0,1,0-1.167,1.164A1.165,1.165,0,0,0,206.088,223.031Zm5.406-.169h.856v-.119c0-.184,0-.368,0-.551,0-.129.053-.178.184-.188.016,0,.032-.005.052-.009,0-.172.008-.338,0-.5a.68.68,0,0,0-.606-.626.654.654,0,0,0-.69.484,4.254,4.254,0,0,0-.046.636c.075.02.142.017.169.049a.313.313,0,0,1,.077.179C211.5,222.426,211.494,222.641,211.494,222.862Zm.911-2.831a.494.494,0,0,0-.489-.5.5.5,0,0,0-.005,1A.5.5,0,0,0,212.405,220.031Zm-8.635,3.98v.519l.387-.2Z" transform="translate(-202.921 -219.196)" fill="#878787"/><path d="M321.251,259.862v.127c0,.345,0,.69,0,1.035,0,.164-.058.224-.213.224H319.3c-.156,0-.212-.058-.213-.224,0-.345,0-.69,0-1.035v-.128c-.076,0-.142,0-.207,0a.153.153,0,0,1-.155-.16c0-.4-.016-.812.02-1.214a1.461,1.461,0,0,1,.732-1.144l.073-.042a1.223,1.223,0,0,1-.5-1.11,1.166,1.166,0,0,1,.391-.8,1.076,1.076,0,0,1,1.589.141,1.248,1.248,0,0,1-.22,1.756,4.487,4.487,0,0,1,.373.313,1.536,1.536,0,0,1,.433,1.089c0,.313,0,.626,0,.939,0,.188-.047.236-.227.236Zm-.323,1.039v-.127q0-.506,0-1.013c0-.19.047-.241.224-.241h.141c0-.3,0-.582,0-.866a1.108,1.108,0,0,0-.016-.148,1.156,1.156,0,0,0-1.059-1.013,1.11,1.11,0,0,0-1.124.9,9.473,9.473,0,0,0-.067,1.13h.168c.165,0,.216.054.216.228q0,.517,0,1.034v.119Zm.044-4.6a.8.8,0,1,0-.806.854A.831.831,0,0,0,320.972,256.3Z" transform="translate(-313.814 -253.657)" fill="#1cacec"/></g></g></g></svg>