<svg xmlns="http://www.w3.org/2000/svg" xmlns:xlink="http://www.w3.org/1999/xlink" width="10" height="10" viewBox="0 0 10 10"><defs><clipPath id="b"><rect width="10" height="10"/></clipPath></defs><g id="a" clip-path="url(#b)"><g transform="translate(-399.093 -279)"><g transform="translate(106.544 30)"><path d="M148.693,1.318c-.087,0-.171.009-.255.011-.064,0-.07.048-.075.1q-.021.241-.04.482c-.044.548-.085,1.1-.131,1.645-.033.4-.065.8-.112,1.2a.446.446,0,0,1-.438.376q-.342,0-.684,0a.452.452,0,0,1-.444-.383c-.031-.2-.047-.412-.064-.619-.044-.542-.086-1.083-.129-1.625-.028-.351-.059-.7-.084-1.054-.007-.092-.042-.129-.134-.12-.068.007-.161-.023-.2.013s-.013.13-.019.2c-.059.649-.121,1.3-.179,1.948q-.05.551-.092,1.1a.514.514,0,0,1-.349.516.415.415,0,0,1-.123.022c-.228,0-.456,0-.684,0a.455.455,0,0,1-.443-.373c-.031-.191-.048-.385-.066-.579-.058-.646-.113-1.293-.169-1.939-.014-.164-.031-.328-.044-.492-.006-.073-.038-.1-.111-.1a.922.922,0,0,1-.308-.071.418.418,0,0,1-.232-.4c0-.791-.006-1.582,0-2.373a.781.781,0,0,1,.62-.752c.234-.054.467-.114.7-.178a.183.183,0,0,1,.2.045,1.633,1.633,0,0,1,.117.119c.056.069.11.066.156,0a.35.35,0,0,1,.477-.118,2.108,2.108,0,0,0,.34.086.116.116,0,0,0,.094-.028,1,1,0,0,1,.561-.275c.183-.044.367-.086.548-.139a.2.2,0,0,1,.221.053c.182.177.185.177.362,0a.2.2,0,0,1,.221-.055c.263.074.531.13.79.214a1.81,1.81,0,0,1,.3.187.217.217,0,0,0,.137.034c.168-.036.335-.082.5-.128a.183.183,0,0,1,.184.06c.061.056.125.148.19.15s.115-.1.181-.149a.252.252,0,0,1,.163-.061c.282.064.564.131.839.219a.759.759,0,0,1,.523.744c0,.445,0,.89,0,1.335,0,.32,0,.639,0,.959a.481.481,0,0,1-.511.52c-.131,0-.133,0-.145.137q-.1,1.072-.193,2.145c-.025.275-.043.552-.082.825a.449.449,0,0,1-.449.375c-.215,0-.43-.006-.644,0a.485.485,0,0,1-.481-.392c-.018-.173-.04-.347-.056-.52q-.086-.974-.168-1.949c-.026-.3-.05-.6-.076-.905A.212.212,0,0,0,148.693,1.318ZM145.887-.346h0c0,.4,0,.8,0,1.2,0,.125.068.168.22.174s.092-.092.1-.161a.338.338,0,0,0,0-.04q0-.915,0-1.829c0-.11.062-.184.149-.185s.148.074.153.183c0,.03,0,.059,0,.089,0,.577-.008,1.154,0,1.73.007.375.035.75.061,1.124.028.411.065.821.1,1.231.04.492.079.985.121,1.477a.173.173,0,0,0,.2.175q.312,0,.625,0a.173.173,0,0,0,.191-.179c.016-.18.029-.361.044-.542.047-.571.1-1.142.14-1.714.036-.483.081-.965.093-1.449.016-.646,0-1.292,0-1.938,0-.111.06-.185.146-.188s.154.074.155.189,0,.237,0,.356c0,.521,0,1.041,0,1.562,0,.034.013.088.035.1a.2.2,0,0,0,.284-.179q0-1.172,0-2.343a.464.464,0,0,0-.336-.447c-.191-.054-.384-.1-.575-.153a.2.2,0,0,0-.248.075.957.957,0,0,1-.1.106c-.119.119-.179.119-.3,0a1.233,1.233,0,0,0-.146-.145.213.213,0,0,0-.144-.044c-.191.038-.379.093-.569.134a.517.517,0,0,0-.41.554C145.9-1.065,145.887-.705,145.887-.346Zm-2.5.314h0c0,.4,0,.8,0,1.2,0,.128.071.173.228.176.135,0,.091-.094.091-.158,0-.623,0-1.246,0-1.869,0-.11.06-.185.146-.188s.154.075.156.188c0,.023,0,.046,0,.069,0,.679,0,1.358,0,2.037,0,.112.011.224.021.335q.067.763.136,1.525c.041.456.08.912.122,1.368a.169.169,0,0,0,.188.17c.215,0,.43,0,.645,0a.169.169,0,0,0,.18-.168c.015-.151.028-.3.041-.453.048-.535.1-1.069.142-1.6.035-.413.085-.827.091-1.241.014-.916,0-1.832,0-2.748a1.873,1.873,0,0,1,.012-.236c.007-.055-.009-.079-.06-.09-.1-.024-.207-.058-.312-.076a.168.168,0,0,0-.12.035c-.068.056-.125.125-.189.185a.144.144,0,0,1-.231,0c-.062-.058-.116-.126-.182-.178a.19.19,0,0,0-.135-.041c-.194.04-.387.085-.578.14a.481.481,0,0,0-.4.546C143.387-.751,143.388-.392,143.388-.033Zm5.626.142a20.824,20.824,0,0,0,.072,2.229c.087.765.138,1.535.206,2.3a.171.171,0,0,0,.191.178q.317,0,.635,0a.17.17,0,0,0,.188-.171c.017-.164.029-.328.044-.492.047-.521.1-1.043.14-1.564.035-.417.083-.833.093-1.251.016-.675,0-1.351,0-2.027,0-.111.061-.184.147-.187s.154.074.155.189,0,.25,0,.376c0,.514,0,1.028,0,1.542,0,.034.013.088.036.1a.2.2,0,0,0,.284-.18q0-1.176,0-2.353a.457.457,0,0,0-.336-.436c-.137-.04-.28-.063-.413-.114a.4.4,0,0,0-.522.147c-.091.123-.182.122-.275,0a.379.379,0,0,0-.511-.147.115.115,0,0,1-.028.007c-.1.017-.154.054-.117.171a.536.536,0,0,1,.007.157C149.014-.934,149.014-.453,149.014.11Z" transform="translate(150.465 253.87)" fill="#878787"/><path d="M159.6-58.553a1.05,1.05,0,0,1,1.054,1.048,1.062,1.062,0,0,1-1.1,1.054,1.063,1.063,0,0,1-1.02-1.056A1.05,1.05,0,0,1,159.6-58.553Zm-.751,1.04a.742.742,0,0,0,.74.763.74.74,0,0,0,.749-.754.741.741,0,0,0-.74-.753A.743.743,0,0,0,158.851-57.513Z" transform="translate(135.593 307.857)" fill="#1cacec"/><path d="M224.052-66.587a1.062,1.062,0,0,1,1.052,1.055,1.058,1.058,0,0,1-1.051,1.046,1.057,1.057,0,0,1-1.047-1.05A1.062,1.062,0,0,1,224.052-66.587Zm.007.295a.752.752,0,0,0-.761.753.753.753,0,0,0,.753.762.754.754,0,0,0,.761-.754A.752.752,0,0,0,224.058-66.292Z" transform="translate(73.71 315.587)" fill="#1cacec"/><path d="M286.906-57.468a1.056,1.056,0,0,1,1.047-1.051A1.056,1.056,0,0,1,289-57.472a1.056,1.056,0,0,1-1.047,1.051A1.057,1.057,0,0,1,286.906-57.468Zm1.806,0a.752.752,0,0,0-.754-.76.752.752,0,0,0-.76.754.752.752,0,0,0,.763.76A.753.753,0,0,0,288.712-57.467Z" transform="translate(12.373 307.823)" fill="#1cacec"/></g></g></g></svg>